<svg width="400" height="400" viewBox="0 0 400 400" fill="none" xmlns="http://www.w3.org/2000/svg">
<path d="M190.385 33.6533C193.148 23.9829 206.852 23.983 209.615 33.6533L242.918 150.214C243.867 153.536 246.464 156.133 249.786 157.082L366.347 190.385C376.017 193.148 376.017 206.852 366.347 209.615L249.786 242.918C246.464 243.867 243.867 246.464 242.918 249.786L209.615 366.347C206.852 376.017 193.148 376.017 190.385 366.347L157.082 249.786C156.133 246.464 153.536 243.867 150.214 242.918L33.6533 209.615C23.9829 206.852 23.983 193.148 33.6533 190.385L150.214 157.082C153.536 156.133 156.133 153.536 157.082 150.214L190.385 33.6533Z" fill="#F8F8FA"/>
</svg>
